<svg width="60" height="52" viewBox="0 0 60 52" fill="none" xmlns="http://www.w3.org/2000/svg">
<g clip-path="url(#clip0)">
<path d="M20.8265 23.92C23.1405 28.7733 27.1074 32.76 31.7355 35.36L35.3719 31.5467C35.8678 31.0267 36.5289 30.8533 37.0248 31.2C38.843 31.8933 40.8265 32.24 42.9752 32.24C43.9669 32.24 44.6281 32.9333 44.6281 33.9733V39.8667C44.6281 40.9067 43.9669 41.6 42.9752 41.6C27.438 41.6 14.876 28.4267 14.876 12.1333C14.876 11.0933 15.5372 10.4 16.5289 10.4H22.3141C23.3058 10.4 23.9669 11.0933 23.9669 12.1333C23.9669 14.2133 24.2975 16.2933 24.9587 18.3733C25.124 18.8933 24.9587 19.5867 24.6281 20.1067L20.8265 23.92Z" fill="#00A8B1"/>
</g>
<g clip-path="url(#clip1)">
<path d="M20.8265 23.92C23.1405 28.7733 27.1074 32.76 31.7355 35.36L35.3719 31.5467C35.8678 31.0267 36.5289 30.8533 37.0248 31.2C38.843 31.8933 40.8265 32.24 42.9752 32.24C43.9669 32.24 44.6281 32.9333 44.6281 33.9733V39.8667C44.6281 40.9067 43.9669 41.6 42.9752 41.6C27.438 41.6 14.876 28.4267 14.876 12.1333C14.876 11.0933 15.5372 10.4 16.5289 10.4H22.3141C23.3058 10.4 23.9669 11.0933 23.9669 12.1333C23.9669 14.2133 24.2975 16.2933 24.9587 18.3733C25.124 18.8933 24.9587 19.5867 24.6281 20.1067L20.8265 23.92Z" fill="#00A8B1"/>
</g>
<path d="M59 26C59 39.6776 46.1554 51 30 51C13.8446 51 1 39.6776 1 26C1 12.3224 13.8446 1 30 1C46.1554 1 59 12.3224 59 26Z" stroke="black" stroke-opacity="0.16" stroke-width="2"/>
<defs>
<clipPath id="clip0">
<rect width="29.7521" height="31.2" fill="white" transform="translate(14.876 10.4)"/>
</clipPath>
<clipPath id="clip1">
<rect width="29.7521" height="31.2" fill="white" transform="translate(14.876 10.4)"/>
</clipPath>
</defs>
</svg>
