<svg width="60" height="52" viewBox="0 0 60 52" fill="none" xmlns="http://www.w3.org/2000/svg">
<g clip-path="url(#clip0)">
<path d="M29.7656 12.3517C24.1425 12.3517 19.5679 16.242 19.5679 21.1463C19.5679 22.2331 19.8339 23.4194 20.3126 24.4865H20.305L20.3506 24.566C20.3886 24.6389 20.4266 24.7118 20.4646 24.7847L29.7656 42.0424L39.0211 24.8708L39.0667 24.7913C39.1047 24.7184 39.1502 24.6455 39.1882 24.566L39.2186 24.4931C39.7126 23.4261 39.9633 22.2994 39.9633 21.1595C39.9633 16.242 35.3888 12.3517 29.7656 12.3517ZM29.7656 23.943C27.7975 23.943 26.2018 22.5513 26.2018 20.8348C26.2018 19.1183 27.7975 17.7265 29.7656 17.7265C31.7337 17.7265 33.3295 19.1183 33.3295 20.8348C33.3295 22.5513 31.7337 23.943 29.7656 23.943Z" fill="#00A8B1"/>
</g>
<path d="M59 26C59 39.6776 46.1554 51 30 51C13.8446 51 1 39.6776 1 26C1 12.3224 13.8446 1 30 1C46.1554 1 59 12.3224 59 26Z" stroke="#C4C4C4" stroke-opacity="0.57" stroke-width="2"/>
<defs>
<clipPath id="clip0">
<rect width="38.9062" height="33.9322" fill="white" transform="translate(10.3125 11.8983)"/>
</clipPath>
</defs>
</svg>
