<svg width="80" height="80" viewBox="0 0 80 80" fill="none" xmlns="http://www.w3.org/2000/svg">
<path fill-rule="evenodd" clip-rule="evenodd" d="M50.0875 39.9496H73.5209V66.8917H6.56536V39.9496H30.0175V36.6667H3.33334V66.2963C3.33334 70 7.00003 70 7.00003 70H73.0001C73.0001 70 76.6666 70 76.6666 66.2963V36.6667H50.0875V39.9496ZM73.3333 20.0001H6.66668V33.3334H3.33334V20.4546C3.33334 16.6667 7.00003 16.6667 7.00003 16.6667H73.0001C73.0001 16.6667 76.6666 16.6667 76.6666 20.4546V33.3334H73.3333V20.0001ZM46.8481 9.93091H33.37V16.6667H30V10.8334C30 6.66675 33.8462 6.66675 33.8462 6.66675H46.1538C46.1538 6.66675 50 6.66675 50 10.8334V16.6667H46.8481V9.93091ZM33.3333 39.9688C33.3333 41.827 34.8113 43.3334 36.698 43.3334H43.302C45.1602 43.3334 46.6667 41.8555 46.6667 39.9688V33.3646C46.6667 31.5064 45.1887 30.0001 43.302 30.0001H36.698C34.8398 30.0001 33.3333 31.4779 33.3333 33.3646V39.9688ZM36.6667 33.3334V40.0001H43.3333V33.3334H36.6667Z" fill="#1ACA41"/>
</svg>
