<svg width="80" height="80" viewBox="0 0 80 80" fill="none" xmlns="http://www.w3.org/2000/svg">
<path d="M64 18.6667C62.2987 18.6667 60.708 19.1321 59.3333 19.9294C57.9587 19.1321 56.368 18.6667 54.6667 18.6667C49.5213 18.6667 45.3333 22.8534 45.3333 28.0001C45.3333 33.1467 49.5213 37.3334 54.6667 37.3334C56.368 37.3334 57.9587 36.8681 59.3333 36.0707C60.708 36.8681 62.2987 37.3334 64 37.3334C69.1453 37.3334 73.3333 33.1467 73.3333 28.0001C73.3333 22.8534 69.1453 18.6667 64 18.6667ZM61.3333 28.0001C61.3333 29.8587 60.5653 31.5387 59.3333 32.7494C58.1013 31.5387 57.3333 29.8587 57.3333 28.0001C57.3333 26.1414 58.1013 24.4614 59.3333 23.2507C60.5653 24.4614 61.3333 26.1414 61.3333 28.0001ZM48 28.0001C48 24.3241 50.9907 21.3334 54.6667 21.3334C55.508 21.3334 56.3067 21.5067 57.0493 21.7934C55.5733 23.4441 54.6667 25.6161 54.6667 28.0001C54.6667 30.3841 55.5733 32.5561 57.0493 34.2067C56.3067 34.4934 55.508 34.6667 54.6667 34.6667C50.9907 34.6667 48 31.6761 48 28.0001ZM64 34.6667C63.1587 34.6667 62.36 34.4934 61.6173 34.2067C63.0933 32.5561 64 30.3841 64 28.0001C64 25.6161 63.0933 23.4441 61.6173 21.7934C62.36 21.5067 63.1587 21.3334 64 21.3334C67.676 21.3334 70.6667 24.3241 70.6667 28.0001C70.6667 31.6761 67.676 34.6667 64 34.6667Z" fill="#7A55C8"/>
<path d="M74.3773 10.6667H5.62267C2.52267 10.6667 0 13.1894 0 16.2894V63.7108C0 66.8108 2.52267 69.3334 5.62267 69.3334H74.3773C77.4773 69.3334 80 66.8108 80 63.7108V16.2894C80 13.1894 77.4773 10.6667 74.3773 10.6667ZM77.3333 63.7108C77.3333 65.3401 76.008 66.6667 74.3773 66.6667H5.62267C3.992 66.6667 2.66667 65.3401 2.66667 63.7108V16.2894C2.66667 14.6601 3.992 13.3334 5.62267 13.3334H74.3773C76.008 13.3334 77.3333 14.6601 77.3333 16.2894V63.7108Z" fill="#7A55C8"/>
<path d="M7.99999 24.0002H20C20.7373 24.0002 21.3333 23.4028 21.3333 22.6668C21.3333 21.9308 20.7373 21.3335 20 21.3335H7.99999C7.26266 21.3335 6.66666 21.9308 6.66666 22.6668C6.66666 23.4028 7.26266 24.0002 7.99999 24.0002Z" fill="#7A55C8"/>
<path d="M37.3333 21.3335H25.3333C24.596 21.3335 24 21.9308 24 22.6668C24 23.4028 24.596 24.0002 25.3333 24.0002H37.3333C38.0707 24.0002 38.6667 23.4028 38.6667 22.6668C38.6667 21.9308 38.0707 21.3335 37.3333 21.3335Z" fill="#7A55C8"/>
<path d="M7.99999 30.6667H9.33332C10.0707 30.6667 10.6667 30.0693 10.6667 29.3333C10.6667 28.5973 10.0707 28 9.33332 28H7.99999C7.26266 28 6.66666 28.5973 6.66666 29.3333C6.66666 30.0693 7.26266 30.6667 7.99999 30.6667Z" fill="#7A55C8"/>
<path d="M14.6667 28C13.9293 28 13.3333 28.5973 13.3333 29.3333C13.3333 30.0693 13.9293 30.6667 14.6667 30.6667H17.3333C18.0707 30.6667 18.6667 30.0693 18.6667 29.3333C18.6667 28.5973 18.0707 28 17.3333 28H14.6667Z" fill="#7A55C8"/>
<path d="M25.3333 29.3333C25.3333 28.5973 24.7373 28 24 28H22.6667C21.9293 28 21.3333 28.5973 21.3333 29.3333C21.3333 30.0693 21.9293 30.6667 22.6667 30.6667H24C24.7373 30.6667 25.3333 30.0693 25.3333 29.3333Z" fill="#7A55C8"/>
<path d="M32 30.6667C32.7373 30.6667 33.3333 30.0693 33.3333 29.3333C33.3333 28.5973 32.7373 28 32 28H29.3333C28.596 28 28 28.5973 28 29.3333C28 30.0693 28.596 30.6667 29.3333 30.6667H32Z" fill="#7A55C8"/>
<path d="M36.4 28.3867C36.1453 28.64 36 28.9733 36 29.3333C36 29.6933 36.1453 30.0267 36.3867 30.28C36.6387 30.52 36.9867 30.6667 37.3333 30.6667C37.68 30.6667 38.0267 30.52 38.28 30.28C38.52 30.0267 38.6667 29.68 38.6667 29.3333C38.6667 28.9867 38.52 28.64 38.28 28.4C37.7867 27.8933 36.88 27.8933 36.4 28.3867Z" fill="#7A55C8"/>
<path d="M6.66666 60.0002H21.3333V49.3335H6.66666V60.0002ZM9.33332 52.0002H18.6667V57.3335H9.33332V52.0002Z" fill="#7A55C8"/>
<path d="M24 60.0002H38.6667V49.3335H24V60.0002ZM26.6667 52.0002H36V57.3335H26.6667V52.0002Z" fill="#7A55C8"/>
<path d="M41.3333 60.0002H56V49.3335H41.3333V60.0002ZM44 52.0002H53.3333V57.3335H44V52.0002Z" fill="#7A55C8"/>
<path d="M58.6667 60.0002H73.3333V49.3335H58.6667V60.0002ZM61.3333 52.0002H70.6667V57.3335H61.3333V52.0002Z" fill="#7A55C8"/>
</svg>
