<svg width="118" height="125" viewBox="0 0 118 125" fill="none" xmlns="http://www.w3.org/2000/svg">
<path d="M111.026 53.6125L60.8408 27.025C60.2599 26.7495 59.6306 26.6071 58.9941 26.6071C58.3576 26.6071 57.7283 26.7495 57.1474 27.025L6.9738 53.6125C6.66131 53.7204 6.38905 53.9303 6.19599 54.212C6.00293 54.4938 5.89896 54.8331 5.89896 55.1812C5.89896 55.5294 6.00293 55.8687 6.19599 56.1504C6.38905 56.4322 6.66131 56.6421 6.9738 56.75L14.5612 60.7625H14.16V105.187C13.5974 105.528 13.1419 106.037 12.8502 106.65L9.5698 113.675C9.319 114.21 9.2011 114.804 9.22722 115.4C9.25335 115.997 9.42265 116.577 9.71912 117.085C10.0156 117.593 10.4294 118.012 10.9216 118.303C11.4137 118.595 11.9678 118.749 12.5316 118.75H19.175C19.7414 118.752 20.2988 118.6 20.794 118.309C21.2893 118.017 21.7058 117.597 22.004 117.087C22.3022 116.576 22.472 115.994 22.4973 115.394C22.5226 114.795 22.4026 114.199 22.1486 113.662L18.88 106.65C18.5883 106.037 18.1328 105.528 17.5702 105.187V62.325L25.8302 66.725V88.45C25.8302 93.375 29.3702 97.95 35.7658 101.337C41.9962 104.637 50.2562 106.45 59.0236 106.45C67.791 106.45 76.051 104.637 82.2814 101.337C88.6888 97.95 92.217 93.3625 92.217 88.45V66.725L111.097 56.725C111.41 56.6171 111.682 56.4072 111.875 56.1254C112.068 55.8436 112.172 55.5044 112.172 55.1562C112.172 54.8081 112.068 54.4688 111.875 54.187C111.682 53.9052 111.41 53.6954 111.097 53.5875L111.026 53.6125ZM19.175 115.25H12.5316L15.8474 108.225L19.175 115.25ZM88.8658 88.45C88.8658 91.975 85.9866 95.4375 80.771 98.2C75.0008 101.25 67.26 102.95 59 102.95C50.74 102.95 42.9992 101.25 37.229 98.2C32.0134 95.4375 29.1342 91.95 29.1342 88.45V68.45L57.1474 83.325C57.7283 83.6005 58.3576 83.7429 58.9941 83.7429C59.6306 83.7429 60.2599 83.6005 60.8408 83.325L88.8658 68.475V88.45ZM59.3658 80.1625C59.2408 80.1839 59.1133 80.1839 58.9882 80.1625C58.8669 80.1804 58.7437 80.1804 58.6224 80.1625L11.4224 55.1625L58.6224 30.1625C58.7475 30.141 58.875 30.141 59 30.1625C59.1213 30.1445 59.2445 30.1445 59.3658 30.1625L106.566 55.1625L59.3658 80.1625Z" fill="#FF761B"/>
</svg>
