<svg width="100" height="100" viewBox="0 0 100 100" fill="none" xmlns="http://www.w3.org/2000/svg">
<path d="M68.75 67.1875C69.6129 67.1875 70.3125 66.4879 70.3125 65.625C70.3125 64.7621 69.6129 64.0625 68.75 64.0625C67.8871 64.0625 67.1875 64.7621 67.1875 65.625C67.1875 66.4879 67.8871 67.1875 68.75 67.1875Z" fill="#7F0145"/>
<path d="M39.0625 57.8125C39.0625 58.75 38.4375 59.375 37.5 59.375H23.4375C22.5 59.375 21.875 58.75 21.875 57.8125C21.875 56.875 22.5 56.25 23.4375 56.25H37.5C38.4375 56.25 39.0625 56.875 39.0625 57.8125Z" fill="#7F0145"/>
<path d="M87.5 37.5H92.1875L66.4062 18.75L59.5312 23.4375L39.0625 37.5H43.75H87.5Z" stroke="#7F0145" stroke-width="2" stroke-miterlimit="10" stroke-linecap="round" stroke-linejoin="round"/>
<path d="M43.75 64.0625V51.5625V43.75V42.1875V37.5" stroke="#7F0145" stroke-width="2" stroke-miterlimit="10" stroke-linecap="round" stroke-linejoin="round"/>
<path d="M87.5 37.5V43.75V64.0625" stroke="#7F0145" stroke-width="2" stroke-miterlimit="10" stroke-linecap="round" stroke-linejoin="round"/>
<path d="M75 78.125H84.375" stroke="#7F0145" stroke-width="2" stroke-miterlimit="10" stroke-linecap="round" stroke-linejoin="round"/>
<path d="M46.875 78.125H56.25" stroke="#7F0145" stroke-width="2" stroke-miterlimit="10" stroke-linecap="round" stroke-linejoin="round"/>
<path d="M90.625 78.125V84.375H40.625V78.125" stroke="#7F0145" stroke-width="2" stroke-miterlimit="10" stroke-linecap="round" stroke-linejoin="round"/>
<path d="M46.875 78.125H40.625V64.0625H43.75H46.875V78.125Z" stroke="#7F0145" stroke-width="2" stroke-miterlimit="10" stroke-linecap="round" stroke-linejoin="round"/>
<path d="M90.625 78.125H84.375V64.0625H87.5H90.625V78.125Z" stroke="#7F0145" stroke-width="2" stroke-miterlimit="10" stroke-linecap="round" stroke-linejoin="round"/>
<path d="M75 51.5625H56.25V78.125H75V51.5625Z" stroke="#7F0145" stroke-width="2" stroke-miterlimit="10" stroke-linecap="round" stroke-linejoin="round"/>
<path d="M43.75 43.75H87.5" stroke="#7F0145" stroke-width="2" stroke-miterlimit="10" stroke-linecap="round" stroke-linejoin="round"/>
<path d="M59.5312 23.4375H18.75L6.25 42.1875H10.9375H43.75" stroke="#7F0145" stroke-width="2" stroke-miterlimit="10" stroke-linecap="round" stroke-linejoin="round"/>
<path d="M10.9375 42.1875V84.375H17.1875H40.625" stroke="#7F0145" stroke-width="2" stroke-miterlimit="10" stroke-linecap="round" stroke-linejoin="round"/>
<path d="M43.75 51.5625H17.1875V84.375" stroke="#7F0145" stroke-width="2" stroke-miterlimit="10" stroke-linecap="round" stroke-linejoin="round"/>
</svg>
