<svg width="165" height="130" viewBox="0 0 165 130" fill="none" xmlns="http://www.w3.org/2000/svg">
<g clip-path="url(#clip0)">
<path d="M84.15 34.2334H72.6V43.3334H84.15V34.2334Z" stroke="#5BE5EE" stroke-width="6" stroke-miterlimit="10" stroke-linecap="round" stroke-linejoin="round"/>
<path d="M62.15 34.2334H50.6V43.3334H62.15V34.2334Z" stroke="#5BE5EE" stroke-width="6" stroke-miterlimit="10" stroke-linecap="round" stroke-linejoin="round"/>
<path d="M84.15 50.2666H72.6V59.3666H84.15V50.2666Z" stroke="#5BE5EE" stroke-width="6" stroke-miterlimit="10" stroke-linecap="round" stroke-linejoin="round"/>
<path d="M62.15 50.2666H50.6V59.3666H62.15V50.2666Z" stroke="#5BE5EE" stroke-width="6" stroke-miterlimit="10" stroke-linecap="round" stroke-linejoin="round"/>
<path d="M84.15 65.8667H72.6V74.9667H84.15V65.8667Z" stroke="#5BE5EE" stroke-width="6" stroke-miterlimit="10" stroke-linecap="round" stroke-linejoin="round"/>
<path d="M62.15 65.8667H50.6V74.9667H62.15V65.8667Z" stroke="#5BE5EE" stroke-width="6" stroke-miterlimit="10" stroke-linecap="round" stroke-linejoin="round"/>
<path d="M76.45 98.8V84.5H58.3V98.8" stroke="#5BE5EE" stroke-width="6" stroke-miterlimit="10" stroke-linecap="round" stroke-linejoin="round"/>
<path d="M92.4 26.9239C92.4 26.2063 91.9826 25.5667 91.0718 25.5667H44.3218C43.411 25.5667 42.35 26.2063 42.35 26.9239V102.757C42.35 103.475 43.3879 104 44.2987 104L91.0371 104.385C91.9479 104.385 92.4006 104.867 92.4006 104V26.9239H92.4V26.9239Z" stroke="#5BE5EE" stroke-width="2" stroke-miterlimit="10" stroke-linecap="round" stroke-linejoin="round"/>
<path d="M100.204 75.4962C101.442 75.2912 102.726 75.1833 104.041 75.1833C114.293 75.1833 122.603 81.731 122.603 89.8084C122.603 97.8857 114.293 104.433 104.041 104.433C102.759 104.433 101.509 104.331 100.3 104.136" stroke="#5BE5EE" stroke-width="3" stroke-miterlimit="10" stroke-linecap="round" stroke-linejoin="round"/>
<path d="M113.85 90.9999H101.75V82.3333" stroke="#5BE5EE" stroke-width="6" stroke-miterlimit="10" stroke-linecap="round" stroke-linejoin="round"/>
</g>
<defs>
<clipPath id="clip0">
<rect width="165" height="130" fill="white"/>
</clipPath>
</defs>
</svg>
