<svg width="87" height="95" viewBox="0 0 87 95" fill="none" xmlns="http://www.w3.org/2000/svg">
<g clip-path="url(#clip0)">
<path d="M3.22772 46.816V57.5795C3.22772 58.1751 3.4835 58.7366 3.91937 59.0957C4.35524 59.4548 4.91987 59.5697 5.44448 59.4063L35.6735 49.9994L36.2312 74.6206L25.9443 83.0385C25.5058 83.3976 25.2474 83.961 25.2474 84.5595V90.25C25.2474 90.8627 25.518 91.4375 25.9739 91.7947C26.4298 92.1519 27.0161 92.2469 27.5468 92.0493L43.5 86.1203L59.461 92.0483C59.6446 92.1167 59.8334 92.15 60.0213 92.15C60.3798 92.15 60.7347 92.0293 61.0349 91.7947C61.4916 91.4375 61.7613 90.8627 61.7613 90.25V84.5595C61.7613 83.961 61.5029 83.3976 61.0645 83.0385L50.7767 74.6206L51.3265 49.9994L81.5556 59.4063C82.0784 59.5697 82.6439 59.4548 83.0807 59.0957C83.5165 58.7366 83.7723 58.1751 83.7723 57.5795V46.816C83.7723 46.055 83.3565 45.3672 82.7153 45.0689L51.7668 30.6403L52.1739 12.3215C52.1739 7.09838 48.2824 2.84998 43.5 2.84998C38.722 2.84998 34.8348 7.09837 34.8357 12.3671L35.242 30.6403L4.28477 45.068C3.64358 45.3672 3.22772 46.055 3.22772 46.816ZM6.70772 48.0709L37.6928 33.63C38.3479 33.325 38.7664 32.6144 38.749 31.8364L38.314 12.3215C38.3148 9.19408 40.6412 6.64998 43.5 6.64998C46.3641 6.64998 48.6939 9.19407 48.6948 12.2749L48.2598 31.8354C48.2415 32.6125 48.6609 33.3231 49.316 33.629L80.2923 48.0709V55.0629L50.1181 45.6731C49.6031 45.5126 49.0445 45.6218 48.6104 45.9705C48.1771 46.3191 47.9153 46.8663 47.9031 47.4544L47.2767 75.5079C47.2619 76.1225 47.522 76.7058 47.9727 77.0744L58.2822 85.5104V87.5985L44.062 82.3156C43.6975 82.1797 43.3025 82.1797 42.938 82.3156L28.7274 87.5976V85.5095L39.036 77.0735C39.4867 76.7049 39.746 76.1206 39.732 75.506L39.097 47.4525C39.083 46.8644 38.822 46.3172 38.3888 45.9686C37.9555 45.619 37.3987 45.5107 36.8811 45.6712L6.70772 55.062V48.0709Z" fill="#FF761B"/>
</g>
<defs>
<clipPath id="clip0">
<rect width="87" height="95" fill="white"/>
</clipPath>
</defs>
</svg>
