<svg width="95" height="95" viewBox="0 0 95 95" fill="none" xmlns="http://www.w3.org/2000/svg">
<g clip-path="url(#clip0)">
<path d="M80.6229 4.63184H22.9583C20.8895 4.63184 19.2136 6.30775 19.2136 8.3765V86.6234C19.2136 88.691 20.8895 90.368 22.9583 90.368H80.6229C82.6906 90.368 84.3677 88.691 84.3677 86.6234V8.3765C84.3677 6.30787 82.6906 4.63184 80.6229 4.63184ZM80.6229 86.6234H22.9583V8.3765H80.6229V86.6234Z" fill="#FF761B"/>
<path d="M34.9865 54.9669C34.9865 54.9669 34.9865 54.9679 34.9875 54.9679C39.3277 59.6009 45.4515 62.2578 51.7896 62.2578C51.7979 62.2578 51.8063 62.2578 51.8146 62.2578C51.8168 62.2578 51.8188 62.2578 51.821 62.2578C51.8251 62.2578 51.8283 62.2567 51.8326 62.2567C58.1536 62.2452 64.2608 59.5904 68.5916 54.9679C72.606 50.6842 74.8179 45.0953 74.8179 39.2317C74.8179 33.369 72.607 27.7802 68.5916 23.4954C64.2514 18.8626 58.1264 16.2054 51.7897 16.2054C45.4517 16.2054 39.3269 18.8625 34.9876 23.4954C34.9866 23.4965 34.9866 23.4965 34.9866 23.4965C30.9744 27.777 28.7645 33.3649 28.7645 39.2317C28.7644 45.0984 30.9742 50.6872 34.9865 54.9669ZM47.3783 28.0833C47.442 27.8387 47.5089 27.6069 47.5747 27.3759C47.6071 27.262 47.6395 27.1429 47.6729 27.0332C47.7534 26.7626 47.837 26.5076 47.9215 26.2569C47.9414 26.1973 47.9601 26.1326 47.98 26.074C48.0858 25.7678 48.1932 25.4753 48.3019 25.1984C48.3239 25.143 48.3469 25.094 48.3687 25.0396C48.4553 24.8243 48.5421 24.6134 48.6299 24.4169C48.6685 24.3291 48.7081 24.2497 48.748 24.165C48.8189 24.0124 48.8911 23.86 48.9633 23.7178C49.0081 23.629 49.0531 23.5486 49.098 23.4639C49.1648 23.3396 49.2306 23.2153 49.2975 23.1003C49.3445 23.0188 49.3928 22.9425 49.4399 22.8653C49.5033 22.7608 49.5681 22.6574 49.6319 22.5613C49.6799 22.4882 49.7281 22.4201 49.7763 22.3523C49.8388 22.2635 49.9005 22.1779 49.9621 22.0973C50.0102 22.0357 50.0573 21.9761 50.1043 21.9187C50.1658 21.8435 50.2265 21.7735 50.2869 21.7056C50.333 21.6555 50.3788 21.6054 50.4238 21.5594C50.4833 21.4978 50.5431 21.4414 50.6015 21.387C50.6454 21.3474 50.6891 21.3066 50.7321 21.271C50.7905 21.2219 50.848 21.1792 50.9044 21.1374C50.9453 21.1082 50.986 21.0767 51.0257 21.0506C51.0831 21.0129 51.1385 20.9828 51.195 20.9534C51.2305 20.9345 51.2661 20.9117 51.3007 20.896C51.3611 20.8688 51.4175 20.8512 51.475 20.8323C51.5022 20.8239 51.5303 20.8113 51.5566 20.8051C51.6383 20.7852 51.7164 20.7736 51.7897 20.7736C51.8628 20.7736 51.9402 20.7852 52.0216 20.8051C52.0488 20.8113 52.079 20.8249 52.1072 20.8343C52.1627 20.8511 52.2191 20.8688 52.2776 20.896C52.3131 20.9127 52.3508 20.9345 52.3874 20.9546C52.4418 20.9838 52.4961 21.013 52.5535 21.0496C52.5932 21.0768 52.636 21.1092 52.6768 21.1395C52.7332 21.1802 52.7885 21.222 52.846 21.2701C52.8899 21.3067 52.9349 21.3485 52.9799 21.3903C53.0373 21.4426 53.0949 21.4979 53.1532 21.5575C53.2002 21.6055 53.2483 21.6577 53.2952 21.71C53.3539 21.7748 53.4123 21.8427 53.4718 21.9148C53.5208 21.9744 53.5701 22.0361 53.6202 22.1008C53.6797 22.1792 53.7393 22.2616 53.7999 22.3474C53.8502 22.4184 53.9004 22.4895 53.9504 22.5647C54.0122 22.6577 54.0739 22.757 54.1354 22.8584C54.1844 22.9388 54.2348 23.0193 54.2838 23.1051C54.3476 23.2147 54.4103 23.3328 54.4739 23.451C54.5221 23.5408 54.5712 23.6286 54.6193 23.7236C54.6861 23.8564 54.753 23.9995 54.8197 24.1416C54.8637 24.2346 54.9076 24.3234 54.9515 24.4216C55.0309 24.5993 55.1091 24.7905 55.1876 24.9827C55.2179 25.0579 55.2491 25.1269 55.2795 25.2042C55.3859 25.478 55.4926 25.7664 55.5972 26.0693C55.6244 26.1477 55.6503 26.2354 55.6765 26.3159C55.7537 26.5469 55.8303 26.7799 55.9045 27.0276C55.9408 27.1487 55.9763 27.2804 56.0119 27.4057C56.0747 27.6252 56.1384 27.8457 56.1989 28.0787C56.2364 28.2227 56.272 28.3754 56.3087 28.5237C56.3493 28.6898 56.3903 28.8592 56.43 29.0304C55.9679 29.1454 55.5021 29.2405 55.0349 29.3198C54.9432 29.3356 54.8523 29.3481 54.7602 29.3616C54.3526 29.4254 53.9422 29.4756 53.5315 29.5132C53.4426 29.5215 53.3539 29.5309 53.265 29.5372C52.2829 29.6124 51.2955 29.6124 50.3134 29.5372C50.2268 29.5309 50.1399 29.5215 50.0532 29.5132C49.6396 29.4766 49.2258 29.4254 48.8142 29.3616C48.7262 29.347 48.6376 29.3356 48.5487 29.3209C48.0796 29.2405 47.6124 29.1454 47.1486 29.0304C47.1904 28.8528 47.2311 28.6784 47.274 28.5079C47.3083 28.3664 47.3427 28.2201 47.3783 28.0833ZM56.3713 50.517C56.3116 50.7645 56.2489 51.0006 56.1863 51.2357C56.1538 51.3601 56.1225 51.4907 56.088 51.6119C55.991 51.9619 55.8905 52.2994 55.7881 52.6223C55.7787 52.6527 55.7683 52.6796 55.7578 52.71C55.6639 53.0014 55.5688 53.2826 55.4705 53.5511C55.4339 53.6514 55.3963 53.7434 55.3587 53.8406C55.2866 54.0309 55.2147 54.2198 55.1415 54.3975C55.0975 54.503 55.0535 54.6002 55.0089 54.7015C54.9407 54.8582 54.8728 55.015 54.8031 55.1623C54.7561 55.2616 54.709 55.3546 54.662 55.4496C54.5949 55.5856 54.527 55.7193 54.4603 55.8447C54.4112 55.9366 54.3619 56.0222 54.3129 56.1089C54.247 56.2261 54.1813 56.3399 54.1145 56.4474C54.0654 56.529 54.0151 56.6063 53.966 56.6826C53.9002 56.7828 53.8345 56.8802 53.7696 56.9721C53.7206 57.042 53.6716 57.1089 53.6222 57.1736C53.5575 57.2593 53.4927 57.3408 53.4292 57.4181C53.3799 57.4757 53.3319 57.5344 53.2838 57.5874C53.22 57.6586 53.1576 57.7234 53.0948 57.786C53.0477 57.8331 53.0007 57.8812 52.9546 57.9228C52.8919 57.9803 52.8304 58.0294 52.7696 58.0786C52.7257 58.1142 52.6809 58.1517 52.637 58.182C52.5752 58.227 52.5148 58.2615 52.4541 58.297C52.4144 58.32 52.3748 58.3472 52.3362 58.3661C52.2703 58.3983 52.2065 58.4202 52.1438 58.4423C52.1135 58.4528 52.0821 58.4686 52.0519 58.4757C51.9608 58.5008 51.8732 58.5132 51.7897 58.5132C51.7061 58.5132 51.6174 58.5008 51.5263 58.4757C51.4961 58.4685 51.4646 58.4528 51.4344 58.4423C51.3706 58.4202 51.308 58.3984 51.2423 58.3661C51.2034 58.3472 51.1639 58.32 51.1242 58.297C51.0634 58.2615 51.003 58.227 50.9402 58.182C50.8975 58.1517 50.8525 58.113 50.8076 58.0777C50.747 58.0296 50.6864 57.9804 50.6236 57.9228C50.5765 57.8811 50.5295 57.832 50.4815 57.7849C50.4199 57.7233 50.3583 57.6586 50.2956 57.5886C50.2465 57.5344 50.1964 57.4746 50.1473 57.4151C50.0848 57.34 50.021 57.2604 49.9581 57.1769C49.907 57.11 49.8557 57.0411 49.8057 56.9689C49.742 56.8791 49.6792 56.7851 49.6154 56.6879C49.5642 56.6085 49.512 56.5281 49.4597 56.4434C49.3959 56.3389 49.3322 56.2292 49.2684 56.1164C49.2173 56.0264 49.166 55.9367 49.116 55.8416C49.0501 55.7194 48.9854 55.5898 48.9206 55.4581C48.8715 55.3599 48.8212 55.2627 48.7732 55.1592C48.7064 55.0172 48.6406 54.8656 48.5748 54.7142C48.5278 54.6077 48.4818 54.5052 48.4357 54.3945C48.3647 54.2231 48.2946 54.0392 48.2258 53.8575C48.1859 53.754 48.1462 53.6569 48.1076 53.5503C48.0094 53.2806 47.9132 52.9965 47.8181 52.704C47.8087 52.6758 47.7993 52.6517 47.7909 52.6235C47.6875 52.2995 47.5871 51.96 47.4889 51.6079C47.4608 51.5045 47.4347 51.3936 47.4064 51.2882C47.3385 51.0333 47.2705 50.7773 47.2069 50.5078C47.1734 50.3688 47.1421 50.2214 47.1098 50.0795C47.0658 49.8808 47.0209 49.6802 46.9782 49.4755C47.4671 49.3492 47.9612 49.2478 48.4577 49.1609C48.561 49.1422 48.6656 49.1276 48.7691 49.111C49.1753 49.0472 49.585 48.9959 49.9946 48.9573C50.0916 48.9479 50.1889 48.9373 50.286 48.9301C51.286 48.8517 52.2922 48.8517 53.2931 48.9301C53.3891 48.9373 53.4854 48.9478 53.5815 48.9573C53.9911 48.9949 54.3995 49.0461 54.8061 49.111C54.9125 49.1276 55.0183 49.1422 55.1237 49.1609C55.6201 49.2478 56.1133 49.3502 56.602 49.4755C56.5634 49.6614 56.5228 49.8433 56.4819 50.023C56.4453 50.1878 56.4099 50.3571 56.3713 50.517ZM48.3123 33.0723C48.7388 33.1369 49.1659 33.1904 49.5954 33.2311C49.7783 33.2487 49.96 33.2655 50.1439 33.2791C50.6299 33.3135 51.1177 33.3345 51.6056 33.3387C51.6675 33.3396 51.7281 33.3459 51.7897 33.3459C51.8504 33.3459 51.9099 33.3396 51.9703 33.3387C52.4585 33.3355 52.9464 33.3135 53.4332 33.2791C53.6192 33.2655 53.8042 33.2477 53.9892 33.2299C54.4113 33.1904 54.8334 33.1369 55.2534 33.0733C55.3891 33.0524 55.525 33.0367 55.6596 33.0138C56.1425 32.9323 56.6242 32.8372 57.1008 32.7243C57.1361 32.9835 57.1612 33.2509 57.1925 33.5142C57.2395 33.9061 57.2897 34.2957 57.3274 34.6959C57.3546 34.9874 57.3713 35.2862 57.3933 35.5797C57.4234 35.981 57.457 36.3791 57.4789 36.7866C57.48 36.8201 57.481 36.8544 57.4819 36.8879H46.0985C46.1006 36.8513 46.1006 36.8127 46.1026 36.7762C46.1225 36.3927 46.1549 36.0176 46.1832 35.6394C46.2062 35.3249 46.2239 35.0062 46.2532 34.6959C46.2898 34.3115 46.3379 33.9362 46.3817 33.5592C46.4151 33.2812 46.4423 32.9992 46.4788 32.7243C46.9573 32.8382 47.4401 32.9333 47.925 33.0147C48.0542 33.0378 48.1837 33.0524 48.3123 33.0723ZM55.5635 45.4359C54.9836 45.3397 54.4007 45.2687 53.8144 45.2164C53.7547 45.2112 53.6952 45.2049 53.6358 45.2008C53.0223 45.1516 52.4068 45.1172 51.7895 45.1172C51.1709 45.1172 50.5554 45.1516 49.9421 45.2008C49.8815 45.206 49.8219 45.2112 49.7623 45.2164C49.1772 45.2686 48.5963 45.3397 48.0184 45.4359C47.9871 45.44 47.9568 45.4442 47.9266 45.4494C47.4073 45.5382 46.8901 45.6385 46.3771 45.7629C46.3634 45.648 46.3551 45.5279 46.3426 45.4119C46.2726 44.7829 46.212 44.1476 46.1661 43.5029C46.1473 43.2407 46.1347 42.9732 46.119 42.7078C46.0887 42.1698 46.0657 41.6274 46.0511 41.0811C46.0469 40.9317 46.0448 40.7822 46.0427 40.6328H57.5368C57.5348 40.7822 57.5328 40.9306 57.5285 41.0788C57.5151 41.6274 57.491 42.1707 57.4607 42.7109C57.4462 42.9722 57.4335 43.2344 57.4146 43.4935C57.3667 44.156 57.3061 44.8099 57.233 45.4567C57.2216 45.5581 57.2153 45.6625 57.2028 45.7629C56.6885 45.6386 56.1693 45.5373 55.649 45.4485C55.6209 45.4442 55.5917 45.4411 55.5635 45.4359ZM42.2878 40.6328C42.2898 40.7759 42.3034 40.9139 42.3066 41.0559C42.3253 41.8741 42.3609 42.6828 42.4141 43.4821C42.4255 43.6451 42.4309 43.8111 42.4434 43.9742C42.5144 44.9093 42.6116 45.8268 42.7286 46.7316C42.738 46.8089 42.7423 46.8903 42.7526 46.9678C42.6763 47.0011 42.6043 47.042 42.5279 47.0753C42.109 47.2602 41.6952 47.4566 41.2878 47.6666C41.1384 47.7431 40.9909 47.8225 40.8426 47.9028C40.457 48.1118 40.0779 48.3322 39.7047 48.5621C39.595 48.6311 39.4821 48.6949 39.3734 48.7648C38.9033 49.0657 38.4446 49.3834 37.9984 49.7175C37.9022 49.7897 37.8103 49.867 37.7152 49.9402C37.362 50.2128 37.0162 50.4961 36.6798 50.7896C36.6151 50.8451 36.5461 50.8941 36.4823 50.9504C34.1911 47.9675 32.8307 44.3941 32.559 40.6327H42.2878V40.6328ZM39.0446 53.6953C39.0978 53.6483 39.1501 53.6003 39.2045 53.5532C39.4009 53.3839 39.6025 53.2199 39.8052 53.0592C39.9305 52.9598 40.0539 52.8586 40.1813 52.7623C40.4017 52.5963 40.6285 52.4375 40.8563 52.2806C40.9722 52.2001 41.0851 52.1166 41.2031 52.0392C41.5124 51.8356 41.8279 51.6422 42.1477 51.4564C42.1873 51.4333 42.225 51.4082 42.2646 51.3851C42.6261 51.1793 42.9939 50.9871 43.3679 50.8053C43.3858 50.7959 43.4056 50.7885 43.4244 50.7792C43.4442 50.869 43.4683 50.9485 43.4881 51.0372C43.5989 51.5221 43.717 51.9934 43.8413 52.4509C43.8736 52.57 43.904 52.6944 43.9374 52.8124C44.0941 53.3673 44.2602 53.899 44.4358 54.4089C44.4776 54.5301 44.5224 54.642 44.5653 54.76C44.7053 55.1518 44.8516 55.5289 45.0031 55.8925C45.0627 56.0336 45.1222 56.1735 45.1828 56.3115C45.3511 56.6917 45.5255 57.0555 45.7063 57.4023C45.7334 57.4555 45.7585 57.5173 45.7857 57.5683C43.3149 56.7639 41.0299 55.4558 39.0446 53.6953ZM57.8759 57.392C58.0535 57.0493 58.2257 56.6897 58.3929 56.3137C58.4544 56.1747 58.5142 56.0326 58.5746 55.8906C58.724 55.5301 58.8692 55.1571 59.0093 54.7696C59.0533 54.6474 59.099 54.5303 59.1429 54.4049C59.3176 53.8992 59.4827 53.3717 59.6382 52.8231C59.6758 52.6904 59.7103 52.5504 59.747 52.4147C59.8649 51.9767 59.9789 51.5275 60.0856 51.0647C60.1074 50.9665 60.1345 50.8788 60.1567 50.7795C60.1755 50.7889 60.1942 50.7963 60.2132 50.8056C60.5849 50.9864 60.9529 51.1796 61.3132 51.3844C61.3593 51.4107 61.4032 51.4399 61.4482 51.4671C61.7615 51.6488 62.072 51.8389 62.375 52.0386C62.4951 52.1179 62.611 52.2038 62.7301 52.2851C62.9539 52.4398 63.1775 52.5954 63.3947 52.7606C63.5254 52.8588 63.6529 52.9622 63.7814 53.0647C63.98 53.2224 64.1773 53.3833 64.3697 53.5484C64.4248 53.5965 64.4792 53.6465 64.5347 53.6957C62.5486 55.4561 60.2623 56.7643 57.7901 57.5699C57.8204 57.5142 57.8464 57.4483 57.8759 57.392ZM67.0963 50.9505C67.0315 50.8932 66.9605 50.8429 66.8959 50.7865C66.5615 50.495 66.2187 50.215 65.8688 49.9443C65.7705 49.8692 65.6764 49.7897 65.5784 49.7155C65.1332 49.3822 64.6755 49.0656 64.2064 48.7647C64.0967 48.6935 63.9818 48.6287 63.87 48.56C63.499 48.3299 63.123 48.1117 62.7394 47.9037C62.59 47.8223 62.4397 47.7419 62.2881 47.6645C61.8858 47.4576 61.4784 47.2632 61.0656 47.0814C60.985 47.046 60.9089 47.0021 60.8273 46.9676C60.838 46.8893 60.842 46.8067 60.8525 46.7273C60.9696 45.8225 61.0656 44.9051 61.1367 43.9722C61.1492 43.805 61.1556 43.6346 61.166 43.4664C61.219 42.6723 61.2547 41.8689 61.2745 41.0582C61.2778 40.9149 61.2903 40.7771 61.2933 40.6329H71.0217C70.7502 44.3922 69.3889 47.9643 67.0963 50.9505ZM61.2348 36.888C61.2308 36.7982 61.2201 36.7125 61.2161 36.6237C61.1764 35.8547 61.1231 35.0939 61.052 34.3449C61.0458 34.2791 61.0426 34.2101 61.0364 34.1443C60.9579 33.3324 60.8567 32.5374 60.7417 31.7527C60.7323 31.6837 60.7272 31.6116 60.7167 31.5426C60.799 31.5082 60.8767 31.4642 60.9592 31.4278C61.3779 31.246 61.7919 31.0505 62.2003 30.8436C62.3539 30.7654 62.5064 30.685 62.6589 30.6034C63.0529 30.3913 63.4384 30.1688 63.8198 29.9347C63.9294 29.8679 64.0411 29.8041 64.1509 29.7351C64.6263 29.431 65.0914 29.1102 65.5437 28.7728C65.6493 28.6944 65.7505 28.6097 65.8553 28.5283C66.2062 28.2576 66.5501 27.9765 66.8844 27.6862C66.9532 27.6266 67.0285 27.5733 67.0963 27.5128C69.1965 30.2481 70.515 33.4756 70.931 36.888H61.2348ZM64.5344 24.7679C64.476 24.8191 64.4176 24.8723 64.3588 24.9236C64.1562 25.0971 63.9495 25.2652 63.7402 25.4315C63.613 25.5317 63.4874 25.6342 63.3578 25.7313C63.1187 25.9111 62.873 26.0814 62.6255 26.2506C62.5188 26.3228 62.4153 26.3991 62.3079 26.469C61.9505 26.7031 61.586 26.9256 61.2139 27.1346C61.1616 27.1648 61.1062 27.1898 61.054 27.2192C60.7331 27.3956 60.4071 27.5639 60.0769 27.7216C60.0457 27.7362 60.0142 27.7498 59.9829 27.7645C59.9641 27.6862 59.9412 27.6192 59.9224 27.5419C59.7657 26.9097 59.6015 26.2954 59.4239 25.7165C59.4114 25.6756 59.3967 25.6393 59.3842 25.5985C59.2139 25.053 59.032 24.539 58.844 24.0418C58.795 23.9122 58.746 23.7825 58.6956 23.6571C58.4931 23.1495 58.2828 22.6635 58.0614 22.2111C58.03 22.1483 57.9978 22.092 57.9662 22.0304C57.7648 21.6302 57.5536 21.2551 57.3373 20.9008C57.3039 20.8455 57.2736 20.7786 57.239 20.7242C59.9226 21.5091 62.401 22.8767 64.5344 24.7679ZM46.2447 20.8957C46.0252 21.2542 45.8131 21.6334 45.6083 22.0388C45.5801 22.0962 45.5488 22.1484 45.5205 22.2071C45.2969 22.6625 45.0859 23.1516 44.8811 23.6625C44.8331 23.7837 44.7859 23.908 44.7389 24.0334C44.5456 24.5402 44.3596 25.0657 44.1861 25.6236C44.1768 25.6528 44.1663 25.68 44.1569 25.7092C43.9773 26.2944 43.8111 26.915 43.6522 27.5534C43.6344 27.6266 43.6126 27.6904 43.5948 27.7645C43.5634 27.7498 43.5321 27.7362 43.5007 27.7216C43.1747 27.5659 42.8529 27.3987 42.5353 27.2243C42.4789 27.1929 42.4193 27.1657 42.3628 27.1333C41.9919 26.9255 41.6284 26.7028 41.2709 26.4698C41.1623 26.3988 41.0589 26.3226 40.9522 26.2494C40.7046 26.0812 40.4601 25.9098 40.2208 25.7301C40.0913 25.634 39.9669 25.5327 39.8405 25.4323C39.6304 25.2663 39.4225 25.097 39.2188 24.9225C39.1603 24.8723 39.1028 24.8191 39.0444 24.7679C41.1778 22.8767 43.6573 21.508 46.3404 20.7233C46.3072 20.7767 46.278 20.8416 46.2447 20.8957ZM36.4827 27.5128C36.5496 27.5722 36.6227 27.6235 36.6906 27.682C37.026 27.9745 37.3707 28.2557 37.7219 28.5273C37.8273 28.6088 37.9298 28.6944 38.0363 28.7737C38.4877 29.1101 38.9506 29.4299 39.4249 29.733C39.5377 29.8049 39.6546 29.8698 39.7686 29.9398C40.1438 30.1707 40.5251 30.3912 40.9139 30.6002C41.0695 30.6838 41.2252 30.7663 41.3829 30.8458C41.7873 31.0516 42.1958 31.2438 42.6116 31.4247C42.6962 31.4623 42.7767 31.5073 42.8624 31.5427C42.8498 31.6231 42.8437 31.7067 42.8321 31.7872C42.7309 32.4884 42.6431 33.2009 42.57 33.924C42.5606 34.019 42.5469 34.11 42.5375 34.2051C42.4592 35.0264 42.4017 35.8611 42.3589 36.7054C42.3558 36.767 42.3486 36.8266 42.3454 36.8883H32.6514C33.066 33.4735 34.3836 30.2461 36.4827 27.5128Z" fill="#FF761B"/>
<path d="M70.3364 68.4504H33.2458C32.2114 68.4504 31.3734 69.2895 31.3734 70.3229C31.3734 71.3572 32.2114 72.1954 33.2458 72.1954H70.3364C71.371 72.1954 72.209 71.3572 72.209 70.3229C72.2089 69.2895 71.371 68.4504 70.3364 68.4504Z" fill="#FF761B"/>
<path d="M61.9067 77.6534H41.6745C40.6411 77.6534 39.8021 78.4923 39.8021 79.5256C39.8021 80.5601 40.6411 81.3982 41.6745 81.3982H61.9067C62.9412 81.3982 63.779 80.5601 63.779 79.5256C63.779 78.4923 62.9412 77.6534 61.9067 77.6534Z" fill="#FF761B"/>
<path d="M12.5047 4.92847C11.4703 4.92847 10.6324 5.76755 10.6324 6.80092V88.1968C10.6324 89.2302 11.4703 90.0694 12.5047 90.0694C13.5381 90.0694 14.3771 89.2303 14.3771 88.1968V6.80092C14.3771 5.76755 13.5381 4.92847 12.5047 4.92847Z" fill="#FF761B"/>
</g>
<defs>
<clipPath id="clip0">
<rect width="95" height="95" fill="white"/>
</clipPath>
</defs>
</svg>
