<svg width="70" height="70" viewBox="0 0 70 70" fill="none" xmlns="http://www.w3.org/2000/svg">
<path fill-rule="evenodd" clip-rule="evenodd" d="M3.51381 0H66.5271C68.429 0 70 1.57117 70 3.51463V66.5272C70 68.429 68.429 70 66.5272 70H3.51381C1.57117 70 0 68.429 0 66.5272V3.51463C0 1.57117 1.57117 0 3.51381 0ZM38.2044 16.3732C36.8396 17.4483 35.7234 18.8125 35.0197 20.3837L34.6071 21.3763C34.3994 21.9548 34.2341 22.6167 34.1521 23.278C34.1112 23.5677 34.0688 23.8573 34.0688 24.1463V24.7256L34.1112 25.6355L34.2765 26.8343H34.2341L33.7791 26.8752H33.4909C29.9757 26.8343 26.6271 26.0487 23.5669 24.6839L21.7896 23.8157C21.459 23.6504 21.1284 23.4441 20.8387 23.278C18.8535 22.0791 17.0762 20.6324 15.464 18.9779C14.4707 17.9035 13.6032 16.7866 12.7766 15.5877C11.9078 17.2415 11.4118 19.1023 11.4118 21.0867C11.4118 21.8312 11.4938 22.5751 11.6181 23.278C11.6591 23.5677 11.7424 23.8573 11.8244 24.1463C12.4037 26.2968 13.5622 28.1985 15.1334 29.646L15.919 30.3071L14.9257 30.1008C13.6443 29.7696 12.3628 29.3563 11.1632 28.8604C11.3285 31.424 12.3218 33.7807 13.8929 35.6415C15.3397 37.419 17.3234 38.7428 19.5981 39.4041L16.9518 39.5694L14.7604 39.4451C16.415 43.4563 20.1775 46.3498 24.6832 46.7228C20.5491 49.7407 15.4217 51.4771 9.92277 51.5181C13.9748 53.9582 18.6473 55.4884 23.6503 55.7765H26.9578C42.5053 54.909 54.8256 42.0503 54.8256 26.2966L54.7832 24.7665C55.3625 24.3123 55.9841 23.8156 56.521 23.278C57.8435 21.9965 59.0417 20.5907 60.0759 19.1023C58.4623 20.1358 56.521 20.7561 54.413 20.7561H54.2887H54.2039L54.2887 20.7151C56.23 19.4745 57.7615 17.5721 58.5048 15.3397C56.976 16.0836 55.3201 16.7456 53.6275 17.2004L53.3788 17.2415L52.1384 17.5312C50.2366 15.546 47.6313 14.3062 44.7377 14.2646H44.6529H44.5313C43.7034 14.2646 42.9178 14.3471 42.1322 14.5126C40.9737 14.8021 39.8999 15.2571 38.9476 15.8774L38.2044 16.3732Z" fill="white"/>
</svg>
