<svg width="50" height="50" viewBox="0 0 50 50" fill="none" xmlns="http://www.w3.org/2000/svg">
<path fill-rule="evenodd" clip-rule="evenodd" d="M25 3.19482C17.2321 3.19482 9.44548 4.58502 6.62018 7.35592C4.27608 9.65472 3.49468 13.7158 3.23128 16.2871C3.23128 16.2871 3.19498 16.5412 3.19498 16.6505C3.19498 17.6588 4.01248 18.4675 5.01198 18.4675C5.13008 18.4675 9.50018 18.1131 12.1349 17.8951C12.1983 17.8859 12.2622 17.8769 12.3256 17.8588C13.3069 17.8317 14.0975 17.032 14.0975 16.0418L14.1063 12.462C14.1063 11.3536 15.0061 10.4631 16.1146 10.4631H33.8853C34.994 10.4631 35.8939 11.3535 35.8939 12.462L35.9028 16.0418C35.9028 17.032 36.6933 17.8317 37.6745 17.8588C37.7375 17.877 37.8014 17.8859 37.8655 17.8951C40.5004 18.113 44.8704 18.4675 44.9881 18.4675C45.9872 18.4675 46.8053 17.6588 46.8053 16.6505C46.8053 16.5412 46.769 16.2871 46.769 16.2871C46.5054 13.7158 45.7249 9.65482 43.3807 7.35592C40.5545 4.58502 32.7679 3.19482 25 3.19482ZM25 26.8171C22.9921 26.8171 21.3658 28.4433 21.3658 30.4512C21.3658 32.4591 22.9921 34.0852 25 34.0852C27.0079 34.0852 28.6341 32.4591 28.6341 30.4512C28.6341 28.4433 27.0079 26.8171 25 26.8171ZM22.2744 18.64V16.3687C22.2744 15.115 21.2567 14.0974 20.0031 14.0974C18.7495 14.0974 17.7318 15.1151 17.7318 16.3687V18.64L5.47498 31.7323C4.63038 32.5592 4.10328 33.7127 4.10328 34.985V38.6283C4.10328 40.6362 5.72968 42.2623 7.73748 42.2623H8.64608V44.5339C8.64608 45.7875 9.66388 46.805 10.9175 46.805C12.1711 46.805 13.1888 45.7875 13.1888 44.5339V42.2623H36.8112V44.5339C36.8112 45.7875 37.8286 46.805 39.0827 46.805C40.3363 46.805 41.3538 45.7875 41.3538 44.5339V42.2623H42.2624C44.2703 42.2623 45.8965 40.6362 45.8965 38.6283V34.985C45.8965 33.7126 45.3695 32.5591 44.5248 31.7323L32.2685 18.64V16.3687C32.2685 15.115 31.2506 14.0974 29.997 14.0974C28.7434 14.0974 27.7258 15.1151 27.7258 16.3687V18.64H22.2744ZM25 23.1829C29.0158 23.1829 32.2685 26.4355 32.2685 30.4512C32.2685 34.467 29.0159 37.7198 25 37.7198C20.9842 37.7198 17.7317 34.4671 17.7317 30.4512C17.7317 26.4354 20.9842 23.1829 25 23.1829Z" fill="white"/>
</svg>
