<svg width="60" height="60" viewBox="0 0 60 60" fill="none" xmlns="http://www.w3.org/2000/svg">
<g clip-path="url(#clip0)">
<path d="M55.2857 45.9458C54.1227 47.0643 52.5693 47.7852 50.8846 47.8166C37.2369 47.901 23.5883 47.901 9.94067 47.8166C6.56192 47.7538 3.52489 44.826 3.4602 41.3361C3.40348 32.5321 3.40348 23.7271 3.4602 14.923C3.52302 11.5429 6.44942 8.5077 9.94067 8.44254C23.5883 8.3577 37.2369 8.3577 50.8846 8.44254C54.2755 8.50582 57.3004 11.4322 57.365 14.923C57.4166 23.7275 57.4166 32.5316 57.365 41.3361C57.3411 42.6388 56.894 43.8875 56.1538 44.9357C56.1843 45.1846 56.0488 45.3772 55.9082 45.5652C55.7511 45.7761 55.5294 45.913 55.2857 45.9458ZM37.0944 28.8491L36.0397 29.8672C32.9057 32.8574 27.5863 32.9844 24.3191 29.8639L24.089 29.6418L7.43286 45.1133C8.1613 45.6168 9.0313 45.9243 9.96364 45.9416C23.5963 46.026 37.229 46.026 50.8616 45.9416C51.898 45.9224 52.8913 45.5314 53.69 44.8907L37.0944 28.8491ZM6.20661 12.3566C5.67739 13.0972 5.35255 13.9893 5.33473 14.9464C5.27848 23.735 5.27848 32.5241 5.33473 41.3127C5.35114 42.1972 5.63848 43.048 6.11989 43.7741L22.739 28.3368L6.20661 12.3566ZM54.4279 12.1143L38.444 27.546L54.905 43.4572C55.2627 42.8169 55.476 42.0875 55.4905 41.3132C55.5416 32.5241 55.5416 23.735 55.4905 14.946C55.4708 13.9049 55.0733 12.9116 54.4279 12.1143ZM52.9869 10.8993C52.3475 10.543 51.6233 10.3316 50.8616 10.3175C37.2496 10.2332 23.6371 10.3171 10.025 10.3171C9.14426 10.3227 8.29489 10.5964 7.56645 11.0638C13.6016 16.9025 19.6077 22.7713 25.6804 28.5711C28.1249 30.8464 32.2222 30.9177 34.7413 28.5144L52.9869 10.8993Z" fill="white"/>
</g>
<defs>
<clipPath id="clip0">
<rect width="60" height="60" fill="white"/>
</clipPath>
</defs>
</svg>
