<svg width="45" height="50" viewBox="0 0 45 50" fill="none" xmlns="http://www.w3.org/2000/svg">
<path d="M30.2737 17.8665C30.2737 22.7983 26.6577 26.7995 22.1971 26.7995C17.7359 26.7995 14.1205 22.7983 14.1205 17.8665C14.1205 12.9332 17.7365 8.93341 22.1971 8.93341C26.6586 8.93306 30.2737 12.9329 30.2737 17.8665ZM38.6535 17.8665C38.6535 7.9989 31.4218 0 22.5 0C13.5789 0 6.34653 7.9989 6.34653 17.8665C6.34653 22.2049 7.74607 26.1829 10.0718 29.2771L22.514 49.1325L35.1381 28.9875C35.5915 28.3599 36.0068 27.6984 36.3815 27.0031L36.5091 26.8006H36.4881C37.8629 24.171 38.6535 21.1223 38.6535 17.8665Z" fill="white"/>
</svg>
