<svg width="80" height="80" viewBox="0 0 80 80" fill="none" xmlns="http://www.w3.org/2000/svg">
<path d="M61.2619 6.81689H18.3444C10.8895 6.81689 4.82458 12.8804 4.82458 20.3353V34.6157V63.2542C4.82458 70.7091 10.8895 76.7726 18.3444 76.7726H61.2633C68.7182 76.7726 74.7817 70.7091 74.7817 63.2542V34.6143V20.3339C74.7803 12.879 68.7168 6.81689 61.2619 6.81689ZM65.1396 14.8786L66.6862 14.8729V16.4124V26.7305L54.8682 26.7686L54.8272 14.9124L65.1396 14.8786ZM29.8181 34.6143C32.059 31.5141 35.694 29.4807 39.8032 29.4807C43.9123 29.4807 47.5473 31.5141 49.7853 34.6143C51.243 36.6379 52.1165 39.1129 52.1165 41.794C52.1165 48.5829 46.5878 54.106 39.8017 54.106C33.0115 54.106 27.4884 48.5829 27.4884 41.794C27.4898 39.1129 28.3605 36.6379 29.8181 34.6143ZM67.9647 63.2528C67.9647 66.9513 64.9576 69.9555 61.2619 69.9555H18.3444C14.6473 69.9555 11.6402 66.9513 11.6402 63.2528V34.6143H22.0824C21.1808 36.8326 20.6742 39.2555 20.6742 41.794C20.6742 52.3393 29.2537 60.9244 39.8032 60.9244C50.3512 60.9244 58.9307 52.3393 58.9307 41.794C58.9307 39.2555 58.4213 36.8326 57.5196 34.6143H67.9647V63.2528Z" fill="white"/>
</svg>
