<svg width="800" height="800" xmlns="http://www.w3.org/2000/svg">

 <g>
  <title>background</title>
  <rect fill="none" id="canvas_background" height="402" width="582" y="-1" x="-1"/>
 </g>
 <g>
  <title>Layer 1</title>
  <path stroke-width="0" id="svg_2" fill="#ff761b" d="m678.93,39.005l-485.597,0c-17.421,0 -31.534,14.113 -31.534,31.534l0,658.921c0,17.412 14.113,31.534 31.534,31.534l485.597,0c17.412,0 31.535,-14.122 31.535,-31.534l0,-658.921c0,-17.42 -14.123,-31.534 -31.535,-31.534zm0,690.455l-485.597,0l0,-658.921l485.597,0l0,658.921z"/>
  <path stroke-width="0" id="svg_3" fill="#ff761b" d="m294.623,462.879c0,0 0,0.009 0.009,0.009c36.549,39.014 88.118,61.388 141.491,61.388c0.07,0 0.141,0 0.211,0c0.018,0 0.035,0 0.054,0c0.034,0 0.061,-0.009 0.097,-0.009c53.23,-0.097 104.659,-22.453 141.129,-61.379c33.805,-36.074 52.432,-83.138 52.432,-132.516c0,-49.37 -18.618,-96.433 -52.432,-132.516c-36.549,-39.013 -88.128,-61.389 -141.49,-61.389c-53.373,0 -104.95,22.375 -141.491,61.389c-0.009,0.009 -0.009,0.009 -0.009,0.009c-33.787,36.047 -52.396,83.103 -52.396,132.507c-0.001,49.404 18.608,96.468 52.395,132.507zm104.352,-226.388c0.537,-2.06 1.1,-4.012 1.654,-5.957c0.273,-0.959 0.546,-1.962 0.827,-2.886c0.678,-2.279 1.382,-4.426 2.094,-6.537c0.167,-0.502 0.325,-1.047 0.492,-1.54c0.891,-2.579 1.796,-5.042 2.711,-7.374c0.185,-0.466 0.379,-0.879 0.563,-1.337c0.729,-1.813 1.46,-3.589 2.199,-5.244c0.325,-0.739 0.659,-1.408 0.995,-2.121c0.597,-1.285 1.205,-2.569 1.813,-3.766c0.377,-0.748 0.756,-1.425 1.134,-2.138c0.563,-1.047 1.117,-2.094 1.68,-3.062c0.396,-0.686 0.803,-1.329 1.199,-1.979c0.534,-0.88 1.08,-1.751 1.617,-2.56c0.404,-0.616 0.81,-1.189 1.216,-1.76c0.526,-0.748 1.046,-1.469 1.565,-2.147c0.405,-0.519 0.801,-1.021 1.197,-1.504c0.518,-0.634 1.029,-1.223 1.538,-1.795c0.388,-0.422 0.774,-0.844 1.153,-1.231c0.501,-0.519 1.004,-0.994 1.496,-1.452c0.37,-0.333 0.738,-0.677 1.1,-0.977c0.492,-0.413 0.976,-0.773 1.451,-1.125c0.344,-0.246 0.687,-0.511 1.021,-0.731c0.484,-0.317 0.95,-0.571 1.426,-0.818c0.299,-0.159 0.599,-0.351 0.89,-0.484c0.509,-0.229 0.984,-0.377 1.468,-0.536c0.229,-0.071 0.466,-0.177 0.687,-0.229c0.688,-0.168 1.346,-0.265 1.963,-0.265c0.616,0 1.267,0.097 1.953,0.265c0.229,0.052 0.483,0.167 0.721,0.246c0.467,0.141 0.942,0.29 1.435,0.519c0.299,0.141 0.616,0.325 0.924,0.494c0.458,0.246 0.916,0.492 1.399,0.8c0.334,0.229 0.695,0.502 1.038,0.757c0.475,0.343 0.941,0.695 1.425,1.1c0.37,0.308 0.749,0.66 1.128,1.012c0.483,0.44 0.968,0.906 1.459,1.408c0.396,0.404 0.801,0.844 1.196,1.284c0.494,0.546 0.986,1.118 1.487,1.725c0.413,0.502 0.828,1.021 1.25,1.566c0.501,0.66 1.003,1.354 1.513,2.077c0.424,0.598 0.846,1.196 1.267,1.83c0.521,0.783 1.04,1.619 1.558,2.473c0.413,0.677 0.837,1.355 1.25,2.077c0.537,0.923 1.065,1.918 1.601,2.913c0.406,0.756 0.819,1.496 1.224,2.296c0.563,1.118 1.126,2.323 1.688,3.52c0.37,0.783 0.74,1.531 1.11,2.358c0.668,1.496 1.327,3.106 1.988,4.725c0.255,0.633 0.518,1.214 0.774,1.865c0.896,2.306 1.794,4.734 2.675,7.285c0.229,0.66 0.447,1.399 0.668,2.077c0.65,1.945 1.295,3.907 1.92,5.993c0.306,1.02 0.605,2.129 0.904,3.184c0.529,1.848 1.066,3.705 1.575,5.667c0.316,1.213 0.616,2.499 0.925,3.748c0.342,1.398 0.687,2.825 1.021,4.267c-3.891,0.968 -7.814,1.769 -11.748,2.437c-0.772,0.133 -1.538,0.238 -2.313,0.352c-3.433,0.537 -6.889,0.96 -10.347,1.276c-0.749,0.07 -1.496,0.149 -2.244,0.202c-8.271,0.634 -16.586,0.634 -24.856,0c-0.729,-0.053 -1.461,-0.132 -2.191,-0.202c-3.483,-0.308 -6.968,-0.739 -10.434,-1.276c-0.741,-0.123 -1.487,-0.219 -2.236,-0.343c-3.95,-0.677 -7.884,-1.478 -11.79,-2.446c0.352,-1.496 0.695,-2.965 1.056,-4.4c0.289,-1.192 0.579,-2.424 0.878,-3.576zm75.731,188.915c-0.503,2.085 -1.031,4.073 -1.558,6.053c-0.274,1.047 -0.537,2.147 -0.828,3.168c-0.817,2.947 -1.663,5.789 -2.525,8.508c-0.079,0.256 -0.167,0.483 -0.255,0.739c-0.791,2.454 -1.592,4.822 -2.42,7.083c-0.308,0.844 -0.625,1.619 -0.941,2.438c-0.607,1.602 -1.213,3.193 -1.829,4.689c-0.371,0.889 -0.741,1.707 -1.117,2.56c-0.574,1.32 -1.146,2.64 -1.733,3.881c-0.396,0.836 -0.792,1.619 -1.188,2.419c-0.565,1.145 -1.137,2.271 -1.699,3.327c-0.413,0.774 -0.828,1.495 -1.241,2.225c-0.555,0.987 -1.108,1.945 -1.671,2.851c-0.413,0.687 -0.837,1.338 -1.25,1.98c-0.554,0.844 -1.108,1.664 -1.654,2.438c-0.413,0.589 -0.825,1.152 -1.241,1.697c-0.545,0.722 -1.091,1.408 -1.626,2.059c-0.415,0.485 -0.819,0.979 -1.224,1.426c-0.537,0.599 -1.063,1.145 -1.592,1.672c-0.396,0.397 -0.792,0.802 -1.18,1.152c-0.528,0.484 -1.046,0.898 -1.558,1.312c-0.37,0.3 -0.747,0.616 -1.117,0.871c-0.52,0.379 -1.029,0.669 -1.54,0.968c-0.334,0.194 -0.668,0.423 -0.993,0.582c-0.555,0.271 -1.092,0.456 -1.62,0.642c-0.255,0.088 -0.52,0.221 -0.774,0.281c-0.767,0.211 -1.505,0.316 -2.208,0.316c-0.704,0 -1.451,-0.105 -2.218,-0.316c-0.254,-0.061 -0.52,-0.193 -0.774,-0.281c-0.537,-0.186 -1.064,-0.37 -1.618,-0.642c-0.327,-0.159 -0.66,-0.388 -0.994,-0.582c-0.512,-0.299 -1.021,-0.589 -1.55,-0.968c-0.359,-0.255 -0.738,-0.581 -1.116,-0.879c-0.511,-0.405 -1.021,-0.819 -1.55,-1.304c-0.396,-0.351 -0.792,-0.765 -1.196,-1.161c-0.519,-0.519 -1.038,-1.064 -1.566,-1.653c-0.413,-0.457 -0.835,-0.96 -1.249,-1.461c-0.526,-0.633 -1.063,-1.303 -1.593,-2.006c-0.43,-0.564 -0.862,-1.144 -1.283,-1.752c-0.537,-0.756 -1.066,-1.548 -1.603,-2.366c-0.431,-0.669 -0.871,-1.346 -1.311,-2.059c-0.537,-0.88 -1.074,-1.804 -1.611,-2.754c-0.43,-0.758 -0.862,-1.513 -1.283,-2.314c-0.555,-1.029 -1.1,-2.12 -1.646,-3.229c-0.413,-0.827 -0.837,-1.646 -1.241,-2.517c-0.563,-1.196 -1.117,-2.473 -1.671,-3.748c-0.396,-0.897 -0.783,-1.76 -1.171,-2.692c-0.598,-1.443 -1.188,-2.992 -1.768,-4.522c-0.336,-0.872 -0.67,-1.689 -0.995,-2.587c-0.827,-2.271 -1.637,-4.664 -2.438,-7.127c-0.079,-0.237 -0.158,-0.44 -0.229,-0.678c-0.871,-2.728 -1.716,-5.587 -2.543,-8.552c-0.237,-0.871 -0.457,-1.805 -0.695,-2.692c-0.572,-2.147 -1.144,-4.303 -1.68,-6.572c-0.282,-1.171 -0.546,-2.412 -0.818,-3.607c-0.37,-1.673 -0.748,-3.362 -1.108,-5.086c4.117,-1.064 8.278,-1.918 12.459,-2.649c0.87,-0.158 1.751,-0.281 2.622,-0.421c3.421,-0.537 6.871,-0.969 10.32,-1.294c0.817,-0.079 1.637,-0.168 2.454,-0.229c8.421,-0.66 16.895,-0.66 25.323,0c0.809,0.061 1.62,0.149 2.429,0.229c3.449,0.317 6.888,0.748 10.312,1.294c0.896,0.14 1.787,0.263 2.675,0.421c4.18,0.731 8.333,1.594 12.449,2.649c-0.325,1.565 -0.667,3.097 -1.012,4.61c-0.308,1.388 -0.606,2.814 -0.931,4.16zm-67.865,-146.902c3.591,0.544 7.188,0.994 10.805,1.337c1.54,0.148 3.07,0.29 4.619,0.404c4.092,0.29 8.2,0.467 12.309,0.502c0.521,0.008 1.031,0.061 1.55,0.061c0.511,0 1.012,-0.053 1.521,-0.061c4.111,-0.027 8.22,-0.212 12.319,-0.502c1.566,-0.114 3.124,-0.264 4.682,-0.414c3.555,-0.333 7.109,-0.783 10.646,-1.319c1.143,-0.176 2.287,-0.308 3.421,-0.501c4.066,-0.686 8.123,-1.487 12.136,-2.438c0.297,2.183 0.509,4.435 0.772,6.652c0.396,3.3 0.819,6.581 1.136,9.951c0.229,2.455 0.37,4.971 0.555,7.443c0.254,3.379 0.537,6.731 0.721,10.163c0.009,0.282 0.018,0.571 0.025,0.853l-95.86,0c0.018,-0.308 0.018,-0.633 0.035,-0.941c0.167,-3.229 0.44,-6.388 0.678,-9.573c0.194,-2.648 0.343,-5.332 0.59,-7.945c0.308,-3.237 0.713,-6.397 1.082,-9.572c0.281,-2.341 0.51,-4.716 0.818,-7.031c4.029,0.959 8.095,1.76 12.178,2.446c1.088,0.194 2.179,0.317 3.262,0.485zm61.062,104.114c-4.883,-0.81 -9.792,-1.408 -14.729,-1.848c-0.503,-0.044 -1.004,-0.097 -1.504,-0.132c-5.166,-0.414 -10.349,-0.704 -15.548,-0.704c-5.209,0 -10.392,0.29 -15.557,0.704c-0.51,0.044 -1.012,0.088 -1.514,0.132c-4.927,0.439 -9.819,1.038 -14.685,1.848c-0.264,0.035 -0.519,0.07 -0.773,0.114c-4.373,0.748 -8.729,1.592 -13.049,2.64c-0.115,-0.968 -0.185,-1.979 -0.29,-2.956c-0.59,-5.297 -1.1,-10.647 -1.487,-16.076c-0.158,-2.208 -0.264,-4.46 -0.396,-6.695c-0.255,-4.531 -0.449,-9.098 -0.572,-13.699c-0.035,-1.258 -0.053,-2.517 -0.071,-3.775l96.793,0c-0.017,1.258 -0.034,2.508 -0.07,3.756c-0.113,4.62 -0.316,9.195 -0.571,13.744c-0.122,2.2 -0.229,4.408 -0.388,6.59c-0.404,5.579 -0.914,11.086 -1.53,16.532c-0.096,0.854 -0.149,1.733 -0.254,2.579c-4.331,-1.047 -8.703,-1.9 -13.085,-2.648c-0.236,-0.036 -0.482,-0.062 -0.72,-0.106zm-111.795,-40.447c0.017,1.205 0.131,2.367 0.158,3.563c0.158,6.89 0.458,13.7 0.906,20.431c0.096,1.373 0.141,2.771 0.246,4.144c0.598,7.875 1.417,15.601 2.402,23.22c0.079,0.651 0.115,1.337 0.202,1.989c-0.642,0.281 -1.249,0.625 -1.892,0.906c-3.528,1.557 -7.012,3.211 -10.443,4.979c-1.258,0.644 -2.5,1.313 -3.749,1.989c-3.247,1.76 -6.44,3.616 -9.582,5.552c-0.924,0.581 -1.875,1.118 -2.79,1.707c-3.959,2.534 -7.822,5.209 -11.579,8.023c-0.81,0.608 -1.584,1.259 -2.385,1.875c-2.974,2.296 -5.886,4.681 -8.719,7.153c-0.545,0.467 -1.126,0.88 -1.663,1.354c-19.295,-25.119 -30.751,-55.211 -33.039,-86.886l81.927,0l0,0.001zm-27.311,110c0.448,-0.396 0.888,-0.8 1.346,-1.197c1.654,-1.425 3.352,-2.806 5.059,-4.16c1.055,-0.837 2.094,-1.689 3.167,-2.5c1.856,-1.398 3.766,-2.735 5.684,-4.056c0.976,-0.678 1.927,-1.381 2.921,-2.033c2.604,-1.715 5.261,-3.343 7.954,-4.908c0.334,-0.194 0.651,-0.406 0.985,-0.6c3.044,-1.733 6.141,-3.352 9.291,-4.883c0.15,-0.079 0.317,-0.141 0.475,-0.22c0.167,0.757 0.37,1.426 0.537,2.173c0.933,4.083 1.927,8.052 2.974,11.905c0.272,1.003 0.528,2.05 0.809,3.044c1.32,4.673 2.719,9.15 4.197,13.444c0.352,1.021 0.73,1.963 1.091,2.957c1.179,3.299 2.411,6.475 3.687,9.537c0.502,1.188 1.003,2.366 1.513,3.528c1.417,3.202 2.886,6.265 4.408,9.186c0.229,0.448 0.44,0.968 0.669,1.398c-20.807,-6.774 -40.049,-17.79 -56.767,-32.615zm158.579,31.13c1.496,-2.886 2.946,-5.914 4.354,-9.08c0.518,-1.171 1.021,-2.367 1.53,-3.563c1.258,-3.036 2.481,-6.177 3.661,-9.44c0.37,-1.029 0.755,-2.015 1.125,-3.071c1.471,-4.259 2.861,-8.701 4.171,-13.321c0.316,-1.117 0.607,-2.296 0.916,-3.439c0.993,-3.688 1.953,-7.471 2.851,-11.368c0.184,-0.827 0.412,-1.566 0.599,-2.402c0.158,0.079 0.316,0.141 0.476,0.22c3.13,1.522 6.229,3.149 9.263,4.874c0.388,0.221 0.758,0.467 1.137,0.696c2.638,1.53 5.253,3.131 7.804,4.813c1.012,0.668 1.988,1.391 2.991,2.076c1.884,1.302 3.767,2.613 5.596,4.004c1.101,0.827 2.175,1.698 3.257,2.561c1.672,1.328 3.334,2.683 4.954,4.073c0.464,0.405 0.922,0.826 1.389,1.24c-16.725,14.825 -35.978,25.841 -56.796,32.625c0.255,-0.469 0.474,-1.024 0.722,-1.498zm77.646,-54.244c-0.546,-0.483 -1.144,-0.906 -1.688,-1.381c-2.816,-2.455 -5.703,-4.813 -8.649,-7.092c-0.828,-0.633 -1.62,-1.302 -2.446,-1.927c-3.749,-2.807 -7.603,-5.473 -11.553,-8.007c-0.924,-0.599 -1.892,-1.145 -2.833,-1.724c-3.124,-1.937 -6.291,-3.775 -9.521,-5.526c-1.258,-0.686 -2.524,-1.363 -3.8,-2.015c-3.388,-1.742 -6.819,-3.379 -10.295,-4.91c-0.679,-0.298 -1.32,-0.668 -2.007,-0.958c0.09,-0.66 0.124,-1.355 0.212,-2.024c0.986,-7.619 1.795,-15.345 2.394,-23.201c0.105,-1.408 0.159,-2.843 0.246,-4.259c0.447,-6.687 0.747,-13.453 0.914,-20.28c0.028,-1.206 0.133,-2.367 0.158,-3.581l81.924,0c-2.287,31.657 -13.75,61.738 -33.056,86.885zm-49.36,-118.421c-0.034,-0.756 -0.124,-1.478 -0.158,-2.226c-0.334,-6.476 -0.783,-12.882 -1.382,-19.19c-0.052,-0.554 -0.079,-1.135 -0.131,-1.689c-0.661,-6.837 -1.513,-13.532 -2.482,-20.14c-0.079,-0.581 -0.122,-1.188 -0.21,-1.769c0.693,-0.29 1.347,-0.66 2.042,-0.967c3.526,-1.531 7.012,-3.177 10.451,-4.919c1.294,-0.659 2.578,-1.336 3.862,-2.023c3.318,-1.786 6.564,-3.66 9.776,-5.631c0.923,-0.563 1.864,-1.1 2.788,-1.681c4.004,-2.561 7.92,-5.262 11.729,-8.104c0.889,-0.66 1.742,-1.373 2.624,-2.059c2.955,-2.279 5.851,-4.646 8.666,-7.091c0.58,-0.502 1.214,-0.951 1.785,-1.46c17.686,23.034 28.789,50.213 32.292,78.949l-81.652,0zm27.786,-102.064c-0.492,0.431 -0.984,0.879 -1.479,1.311c-1.706,1.461 -3.447,2.877 -5.209,4.277c-1.071,0.844 -2.129,1.707 -3.22,2.525c-2.014,1.514 -4.083,2.948 -6.167,4.373c-0.899,0.608 -1.77,1.25 -2.675,1.839c-3.009,1.971 -6.079,3.845 -9.212,5.605c-0.441,0.254 -0.907,0.465 -1.347,0.712c-2.702,1.486 -5.447,2.903 -8.228,4.231c-0.263,0.123 -0.528,0.238 -0.792,0.361c-0.158,-0.659 -0.351,-1.223 -0.509,-1.874c-1.32,-5.324 -2.702,-10.497 -4.198,-15.372c-0.105,-0.344 -0.229,-0.65 -0.334,-0.994c-1.434,-4.593 -2.966,-8.922 -4.549,-13.109c-0.413,-1.091 -0.826,-2.183 -1.25,-3.239c-1.705,-4.275 -3.476,-8.367 -5.341,-12.177c-0.264,-0.529 -0.535,-1.003 -0.801,-1.522c-1.696,-3.37 -3.475,-6.529 -5.296,-9.512c-0.282,-0.466 -0.537,-1.029 -0.828,-1.487c22.599,6.609 43.469,18.126 61.435,34.052zm-154.019,-32.608c-1.848,3.019 -3.634,6.212 -5.359,9.626c-0.237,0.483 -0.501,0.923 -0.739,1.417c-1.883,3.835 -3.66,7.954 -5.385,12.256c-0.404,1.021 -0.801,2.068 -1.197,3.124c-1.628,4.267 -3.194,8.693 -4.655,13.391c-0.079,0.246 -0.167,0.475 -0.246,0.721c-1.513,4.928 -2.912,10.154 -4.25,15.53c-0.15,0.616 -0.334,1.153 -0.484,1.777c-0.264,-0.123 -0.528,-0.238 -0.792,-0.361c-2.745,-1.311 -5.455,-2.719 -8.13,-4.188c-0.475,-0.264 -0.977,-0.493 -1.452,-0.766c-3.124,-1.75 -6.185,-3.625 -9.195,-5.587c-0.915,-0.598 -1.786,-1.24 -2.684,-1.856c-2.085,-1.417 -4.144,-2.86 -6.159,-4.373c-1.091,-0.81 -2.138,-1.663 -3.203,-2.508c-1.769,-1.398 -3.52,-2.824 -5.235,-4.293c-0.493,-0.423 -0.977,-0.871 -1.469,-1.302c17.966,-15.926 38.846,-27.452 61.44,-34.06c-0.279,0.45 -0.525,0.996 -0.806,1.452zm-82.206,55.723c0.563,0.5 1.179,0.932 1.751,1.425c2.824,2.463 5.727,4.831 8.684,7.118c0.888,0.686 1.751,1.407 2.648,2.075c3.801,2.833 7.699,5.526 11.693,8.078c0.95,0.606 1.935,1.152 2.895,1.742c3.159,1.944 6.37,3.801 9.644,5.561c1.311,0.704 2.622,1.399 3.95,2.068c3.405,1.733 6.845,3.352 10.347,4.875c0.712,0.317 1.39,0.696 2.112,0.994c-0.106,0.677 -0.158,1.381 -0.255,2.059c-0.853,5.905 -1.592,11.905 -2.208,17.994c-0.079,0.8 -0.194,1.566 -0.273,2.367c-0.66,6.916 -1.144,13.945 -1.504,21.055c-0.026,0.519 -0.087,1.021 -0.114,1.54l-81.634,0c3.492,-28.756 14.587,-55.934 32.264,-78.951z"/>
  <path stroke-width="0" id="svg_4" fill="#ff761b" d="m592.307,576.425l-312.342,0c-8.711,0 -15.768,7.066 -15.768,15.768c0,8.71 7.057,15.768 15.768,15.768l312.342,0c8.712,0 15.769,-7.058 15.769,-15.768c-0.001,-8.702 -7.057,-15.768 -15.769,-15.768z"/>
  <path stroke-width="0" id="svg_5" fill="#ff761b" d="m521.32,653.924l-170.377,0c-8.702,0 -15.767,7.065 -15.767,15.766c0,8.712 7.065,15.769 15.767,15.769l170.377,0c8.711,0 15.766,-7.057 15.766,-15.769c0,-8.701 -7.055,-15.766 -15.766,-15.766z"/>
  <path stroke-width="0" id="svg_6" fill="#ff761b" d="m105.303,41.503c-8.711,0 -15.767,7.066 -15.767,15.768l0,685.439c0,8.702 7.056,15.769 15.767,15.769c8.702,0 15.767,-7.066 15.767,-15.769l0,-685.439c0,-8.702 -7.065,-15.768 -15.767,-15.768z"/>
 </g>
</svg>