<svg width="100" height="100" xmlns="http://www.w3.org/2000/svg">

 <g>
  <title>background</title>
  <rect fill="none" id="canvas_background" height="402" width="582" y="-1" x="-1"/>
 </g>
 <g>
  <title>Layer 1</title>
  <path fill="#ff761b" id="svg_1" d="m3.71,49.28l0,11.33c0,0.627 0.294,1.218 0.795,1.596c0.501,0.378 1.15,0.499 1.753,0.327l34.746,-9.902l0.641,25.917l-11.824,8.861c-0.504,0.378 -0.801,0.971 -0.801,1.601l0,5.99c0,0.645 0.311,1.25 0.835,1.626c0.524,0.376 1.198,0.476 1.808,0.268l18.337,-6.241l18.346,6.24c0.211,0.072 0.428,0.107 0.644,0.107c0.412,0 0.82,-0.127 1.165,-0.374c0.525,-0.376 0.835,-0.981 0.835,-1.626l0,-5.99c0,-0.63 -0.297,-1.223 -0.801,-1.601l-11.825,-8.861l0.632,-25.917l34.746,9.902c0.601,0.172 1.251,0.051 1.753,-0.327c0.501,-0.378 0.795,-0.969 0.795,-1.596l0,-11.33c0,-0.801 -0.478,-1.525 -1.215,-1.839l-35.573,-15.188l0.468,-19.283c0,-5.498 -4.473,-9.97 -9.97,-9.97c-5.492,0 -9.96,4.472 -9.959,10.018l0.467,19.235l-35.583,15.187c-0.737,0.315 -1.215,1.039 -1.215,1.84zm4,1.321l35.615,-15.201c0.753,-0.321 1.234,-1.069 1.214,-1.888l-0.5,-20.542c0.001,-3.292 2.675,-5.97 5.961,-5.97c3.292,0 5.97,2.678 5.971,5.921l-0.5,20.59c-0.021,0.818 0.461,1.566 1.214,1.888l35.605,15.202l0,7.36l-34.683,-9.884c-0.592,-0.169 -1.234,-0.054 -1.733,0.313c-0.498,0.367 -0.799,0.943 -0.813,1.562l-0.72,29.53c-0.017,0.647 0.282,1.261 0.8,1.649l11.85,8.88l0,2.198l-16.345,-5.561c-0.419,-0.143 -0.873,-0.143 -1.292,0l-16.334,5.56l0,-2.198l11.849,-8.88c0.518,-0.388 0.816,-1.003 0.8,-1.65l-0.73,-29.53c-0.016,-0.619 -0.316,-1.195 -0.814,-1.562c-0.498,-0.368 -1.138,-0.482 -1.733,-0.313l-34.682,9.885l0,-7.359z"/>
 </g>
</svg>